<svg data-v-0dd9719b="" version="1.0" xmlns="http://www.w3.org/2000/svg" xmlns:xlink="http://www.w3.org/1999/xlink" width="100%" height="100%" viewBox="0 0 340.000000 250.000000" preserveAspectRatio="xMidYMid meet" color-interpolation-filters="sRGB" style="margin: auto;"> <rect data-v-0dd9719b="" x="0" y="0" width="100%" height="100%" fill="#fff" fill-opacity="1" class="background"></rect> <rect data-v-0dd9719b="" x="0" y="0" width="100%" height="100%" fill="url(#watermark)" fill-opacity="1" class="watermarklayer"></rect> <g data-v-0dd9719b="" fill="#ff3f57" class="icon-text-wrapper icon-svg-group iconsvg" transform="translate(48.209999084472656,95.05240821838379)"><g class="iconsvg-imagesvg" transform="translate(0,0)"><g><rect fill="#ff3f57" fill-opacity="0" stroke-width="2" x="0" y="0" width="60" height="59.89518342899925" class="image-rect"></rect> <svg x="0" y="0" width="60" height="59.89518342899925" filtersec="colorsb819664495" class="image-svg-svg primary" style="overflow: visible;"><svg xmlns="http://www.w3.org/2000/svg" viewBox="0 0 102.77999877929688 102.5999984741211"><g><g><path fill="#ff3f57" d="M57.26 38.91H19.13l-4.42 11.15L40.17 67.3l7.6-4.49 9.49-23.9z"></path><path fill="#ff3f57" d="M38.33 67.3h38.13l4.43-11.14-25.47-17.25-7.6 4.5-9.49 23.89z"></path><path fill="#191b5c" d="M96.04 0L14.13.01l-5.84 14.7 10.69 12.75 37.79.01L0 75.13l6.91 27.47H89.9l10.96-27.47H38.4l14.05-4.1 50.33-43.56L96.04 0z"></path></g></g></svg></svg> <!----></g></g> <g transform="translate(67,1.2563419342041016)"><g data-gra="path-name" fill-rule="" class="tp-name iconsvg-namesvg" transform="translate(0,0)"><g transform="scale(1)"><g><path d="M22.41-12.87L16.29-12.87 15.93-11.43Q22.68-5.54 23.31-4.41L23.31-4.41Q25.11-2.11 22.59 0 20.07 2.11 18.4-0.36L18.4-0.36Q18.54-0.45 13.68-5.35L13.68-5.35Q11.03 0.09 8.37 2.25L8.37 2.25Q6.25 4.23 3.96 1.93L3.96 1.93 3.65 1.71Q1.21 0.04 3.38-1.93L3.38-1.93Q7.69-5.04 9.76-12.87L9.76-12.87 4.54-12.87Q1.62-12.87 1.62-15.79L1.62-15.79 1.62-18.77 10.71-18.77Q10.8-20.02 10.8-22.14L10.8-22.14 10.8-24.39 5.94-24.39Q3.01-24.39 3.01-27.31L3.01-27.31 3.01-30.29 7.33-30.29Q6.08-33.52 5.94-33.84L5.94-33.84Q4.27-36.27 6.97-37.35 9.67-38.43 11.07-35.87L11.07-35.87 11.97-34.2Q13.37-31.63 10.35-30.29L10.35-30.29 14.35-30.29Q16.2-35.01 16.88-38.2L16.88-38.2 20.65-37.3Q23.49-36.63 22.27-33.98L22.27-33.98Q21.69-32.67 20.52-30.29L20.52-30.29 24.12-30.29 24.12-27.31Q24.12-24.39 21.2-24.39L21.2-24.39 17.19-24.39 17.19-22.05Q17.19-21.2 17.1-18.77L17.1-18.77 25.33-18.77 25.33-15.79Q25.33-12.87 22.41-12.87L22.41-12.87ZM29.07-36.36L39.46-36.54 41.8-35.1Q44.28-33.57 43.38-30.78L43.38-30.78 39.69-21.02Q39.42-20.25 39.91-19.57L39.91-19.57Q43.24-15.75 43.24-10.17 43.24-4.59 40.63-2.75L40.63-2.75Q39.33-1.75 37.89-1.53L37.89-1.53 36.99-1.48Q34.06-1.35 33.25-4.54L33.25-4.54Q32.49-7.74 34.74-7.65L34.74-7.65Q35.46-7.69 36-8.05L36-8.05Q36.95-8.64 36.95-10.8L36.95-10.8Q36.95-15.43 34.92-17.23L34.92-17.23Q33.07-19.48 33.88-22.27L33.88-22.27 36.23-30.2 32.49-30.2 32.49 1.3Q32.49 4.23 29.29 4.23L29.29 4.23Q26.14 4.23 26.14 1.3L26.14 1.3 26.14-33.39Q26.14-36.31 29.07-36.36L29.07-36.36ZM80.01-19.84L80.01-37.84 86.58-37.84 86.58 0.94Q86.58 3.87 83.3 3.87 80.01 3.87 80.01 0.94L80.01 0.94 80.01-15.03 78.62-14.22Q76.05-12.82 75.51-15.79L75.51-15.79Q75.51-15.84 73.71-20.43L73.71-20.43 73.71-1.57Q73.71 1.35 70.52 1.35 67.32 1.35 67.32-1.57L67.32-1.57 67.32-14.54 65.47-13.63Q62.82-12.38 62.41-15.3L62.41-15.3Q62.14-18 61.29-19.35L61.29-19.35Q60.84-7.6 56.16-0.81L56.16-0.81Q54.18 2.02 53.64 2.52L53.64 2.52Q51.34 4.27 49.55 1.98L49.55 1.98 49.14 1.53 48.73 1.13Q46.62-0.9 48.73-2.92L48.73-2.92Q52.7-5.67 54.27-14.4L54.27-14.4 52.92-13.72Q50.27-12.51 49.77-15.43L49.77-15.43Q49.63-16.96 47.97-21.78L47.97-21.78Q47.07-24.52 49.59-25.65L49.59-25.65Q52.16-26.77 53.19-23.98L53.19-23.98Q53.69-22.86 54.81-19.08L54.81-19.08Q54.9-21.87 54.9-23.22L54.9-23.22 54.9-37.71 61.38-37.71 61.38-25.15 64.66-26.64Q66.15-23.18 67.32-19.26L67.32-19.26 67.32-36.72 73.71-36.72 73.71-25.29 76.81-26.91Q78.66-23.4 80.01-19.84L80.01-19.84ZM107.23-14.08L110.7-9.27Q112.09-6.71 109.35-4.37 106.61-2.02 105.25-4.59L105.25-4.59Q105.7-4 104.04-6.61L104.04-6.61Q100.62-0.14 97.42 2.34L97.42 2.34Q95.27 4.27 93.51 1.93L93.51 1.93 93.06 1.4 92.7 1.03Q90.58-1.03 92.83-2.92L92.83-2.92Q96.03-4.91 99.58-12.91L99.58-12.91Q95.98-17.59 93.47-20.29L93.47-20.29Q91.58-22.45 93.96-24.39L93.96-24.39Q96.39-26.37 98.41-24.25L98.41-24.25Q99.81-22.81 102.15-20.11L102.15-20.11Q103.36-24.39 104.04-29.02L104.04-29.02 95.22-29.02Q92.3-29.02 92.3-31.95L92.3-31.95 92.3-32.31Q92.3-35.23 95.22-35.28L95.22-35.28 106.83-35.46 108.27-35.05Q111.06-34.29 110.79-31.41L110.79-31.41 107.23-14.08ZM125.32-29.02L125.32-29.02 117.9-29.02Q119.11-21.24 121.45-15.57L121.45-15.57Q124.16-21.2 125.32-29.02ZM114.93-35.23L128.12-35.46 129.56-35.05Q132.39-34.34 132.07-31.45L132.07-31.45Q131.04-17.95 125.37-8.46L125.37-8.46Q128.75-3.82 130.91-2.88L130.91-2.88Q133.43-1.35 131.35 0.77L131.35 0.77 130.95 1.21 130.45 1.84Q128.84 4.27 126.41 2.7L126.41 2.7Q124.38 1.57 121.09-2.7L121.09-2.7Q117.31 1.35 114.57 2.7L114.57 2.7Q112.05 4.14 109.89 1.26L109.89 1.26Q107.78-1.62 110.38-2.92L110.38-2.92Q113.49-4.14 117.31-8.91L117.31-8.91Q113.72-16.52 112.28-25.7L112.28-25.7Q111.78-28.53 114.93-29.02L114.93-29.02Q112-29.02 112-32.31L112-32.31Q112-35.23 114.93-35.23L114.93-35.23ZM150.75-12.33L150.75-8.59 163.53-8.59 163.53-12.33 150.75-12.33ZM163.53-27.49L163.53-30.69 150.75-30.69 150.75-27.49 163.53-27.49ZM163.53-21.6L150.75-21.6 150.75-18.22 163.53-18.22 163.53-21.6ZM170.46-8.59L178.2-8.59 178.2-5Q178.2-2.07 175.28-2.07L175.28-2.07 170.46-2.07 170.46 1.3Q170.46 4.23 167 4.23 163.53 4.23 163.53 1.3L163.53 1.3 163.53-2.07 139.77-2.07Q136.84-2.07 136.84-5L136.84-5 136.84-8.59 143.82-8.59 143.82-30.69 140.44-30.69Q137.52-30.69 137.52-33.62L137.52-33.62 137.52-37.08 177.66-37.08 177.66-33.62Q177.66-30.69 174.74-30.69L174.74-30.69 170.46-30.69 170.46-8.59Z" transform="translate(-1.6200000047683716, 38.20000076293945)"></path></g> <!----> <!----> <!----> <!----> <!----> <!----> <!----></g></g> <g data-gra="path-slogan" fill-rule="" class="tp-slogan iconsvg-slogansvg" fill="#ff3f57" transform="translate(5,48.43000030517578)"><rect x="0" height="1" y="3.9750003814697266" width="11.169998168945312"></rect> <rect height="1" y="3.9750003814697266" width="11.169998168945312" x="155.41000366210938"></rect> <g transform="translate(14.169998168945312,0)"><g transform="scale(1)"><path d="M1.73-1.03L7.03-1.03L7.03 0L0.28 0L0.28-0.94L5.53-7.59L0.66-7.59L0.66-8.58L7.03-8.58L7.03-7.59L1.73-1.03ZM9.33-5.06L13.83-5.06L13.83-8.58L15-8.58L15 0L13.83 0L13.83-3.98L9.33-3.98L9.33 0L8.16 0L8.16-8.58L9.33-8.58L9.33-5.06ZM18.09-1.03L23.25-1.03L23.25 0L16.92 0L16.92-8.58L23.16-8.58L23.16-7.59L18.09-7.59L18.09-4.92L22.78-4.92L22.78-3.89L18.09-3.89L18.09-1.03ZM26.16-8.58L30.47-1.64L30.47-8.58L31.59-8.58L31.59 0L30.28 0L25.92-6.94L25.88-6.94L25.88 0L24.75 0L24.75-8.58L26.16-8.58ZM39.80-3.61L37.17-3.61L37.17-4.59L40.92-4.59L40.92 0L40.17 0L39.89-1.08Q38.91 0.09 37.08 0.14L37.08 0.14Q35.34 0.14 34.41-0.75L34.41-0.75Q33-2.06 33.05-4.36L33.05-4.36Q33.38-8.63 37.13-8.81L37.13-8.81Q40.31-8.63 40.78-6L40.78-6L39.66-6Q39.19-7.78 37.08-7.83L37.08-7.83Q34.41-7.64 34.27-4.31L34.27-4.31Q34.27-0.75 37.13-0.75L37.13-0.75Q38.16-0.75 38.91-1.31L38.91-1.31Q39.84-2.06 39.80-3.61L39.80-3.61ZM43.55-1.03L48.84-1.03L48.84 0L42.09 0L42.09-0.94L47.34-7.59L42.47-7.59L42.47-8.58L48.84-8.58L48.84-7.59L43.55-1.03ZM51.14-5.06L55.64-5.06L55.64-8.58L56.81-8.58L56.81 0L55.64 0L55.64-3.98L51.14-3.98L51.14 0L49.97 0L49.97-8.58L51.14-8.58L51.14-5.06ZM65.39-4.27L65.39-4.27Q65.20-7.64 62.39-7.83L62.39-7.83Q59.53-7.69 59.39-4.27L59.39-4.27Q59.53-0.94 62.39-0.80L62.39-0.80Q65.20-0.98 65.39-4.27ZM66.56-4.27L66.56-4.27Q66.28 0 62.39 0.14L62.39 0.14Q58.45 0 58.17-4.27L58.17-4.27Q58.41-8.72 62.39-8.81L62.39-8.81Q66.28-8.67 66.56-4.27ZM73.59-3.19L73.59-8.58L74.77-8.58L74.77-3.05Q74.63 0.05 71.25 0.14L71.25 0.14Q68.11 0.05 67.97-2.86L67.97-2.86L67.97-8.58L69.14-8.58L69.14-3.19Q69.19-0.84 71.30-0.80L71.30-0.80Q73.59-0.84 73.59-3.19L73.59-3.19ZM83.11-7.64L81.05-7.64L81.05-4.97L83.11-4.97Q84.94-4.92 84.89-6.38L84.89-6.38Q84.89-7.64 83.11-7.64L83.11-7.64ZM83.58 0L79.88 0L79.88-8.58L83.67-8.58Q85.97-8.48 86.06-6.42L86.06-6.42Q86.06-5.16 84.94-4.64L84.94-4.64Q86.53-4.08 86.53-2.53L86.53-2.53Q86.39-0.09 83.58 0L83.58 0ZM83.30-3.98L81.05-3.98L81.05-0.98L83.53-0.98Q85.31-1.03 85.36-2.53L85.36-2.53Q85.36-3.98 83.30-3.98L83.30-3.98ZM88.03-8.58L89.20-8.58L89.20 0L88.03 0L88.03-8.58ZM92.58-8.58L96.89-1.64L96.89-8.58L98.02-8.58L98.02 0L96.70 0L92.34-6.94L92.30-6.94L92.30 0L91.17 0L91.17-8.58L92.58-8.58ZM105.47 0L104.63-2.48L101.16-2.48L100.27 0L99.09 0L102.33-8.58L103.64-8.58L106.73 0L105.47 0ZM102.89-7.31L101.53-3.52L104.20-3.52L102.94-7.31L102.89-7.31ZM113.44-3.19L113.44-8.58L114.61-8.58L114.61-3.05Q114.47 0.05 111.09 0.14L111.09 0.14Q107.95 0.05 107.81-2.86L107.81-2.86L107.81-8.58L108.98-8.58L108.98-3.19Q109.03-0.84 111.14-0.80L111.14-0.80Q113.44-0.84 113.44-3.19L113.44-3.19ZM120.52-3.70L117.70-3.70L117.70 0L116.53 0L116.53-8.58L120.52-8.58Q123.38-8.58 123.38-6.28L123.38-6.28Q123.38-4.88 122.16-4.22L122.16-4.22Q123.19-3.94 123.19-2.58L123.19-2.58L123.28-1.03Q123.23-0.38 123.70-0.19L123.70-0.19L123.70 0L122.25 0Q122.11-0.61 122.06-2.16L122.06-2.16Q122.11-3.70 120.52-3.70L120.52-3.70ZM120.61-7.64L117.70-7.64L117.70-4.69L120.42-4.69Q122.16-4.69 122.16-6.19L122.16-6.19Q122.16-7.64 120.61-7.64L120.61-7.64ZM130.69 0L129.84-2.48L126.38-2.48L125.48 0L124.31 0L127.55-8.58L128.86-8.58L131.95 0L130.69 0ZM128.11-7.31L126.75-3.52L129.42-3.52L128.16-7.31L128.11-7.31ZM132.98-8.58L134.16-8.58L134.16-1.03L138.52-1.03L138.52 0L132.98 0L132.98-8.58Z" transform="translate(-0.28125, 8.8125)"></path></g></g></g></g></g><defs v-gra="od"></defs></svg>